# xmcd
#
# Track frame offsets: 
#        150
#        13843
#        28240
#        42600
#        58337
#        78855
#        101855
#        121075
#        137202
#        158178
#        176101
#        195500
#        221860
#        243286
#        259174
#        275652
#        288267
#        302830
#        325483
#        342295
#
# Disc length: 4790 seconds
#
# Revision: 0
# Processed by: cddbd v1.5PL3 Copyright (c) Steve Scherf et al.
# Submitted via: ExactAudioCopy v0.95a3
#
DISCID=3a12b414
DTITLE=Любэ - Русская коллекция
DYEAR=2000
DGENRE=Other
TTITLE0=Люберцы
TTITLE1=Самоволочка
TTITLE2=Атас
TTITLE3=Полустаночки
TTITLE4=Дорога
TTITLE5=Комбат
TTITLE6=Годы
TTITLE7=Опера
TTITLE8=Скворцы
TTITLE9=Трамвай пятерочка
TTITLE10=Улочки московские
TTITLE11=Луна
TTITLE12=Помилуй Господи нас грешных и спаси
TTITLE13=Ночь
TTITLE14=Побеседуй со мной
TTITLE15=Мент
TTITLE16=Не валяй дурака Америка
TTITLE17=Ребята с нашего двора
TTITLE18=Там за туманами
TTITLE19=Главное - что ты есть у меня
EXTD=
EXTT0=
EXTT1=
EXTT2=
EXTT3=
EXTT4=
EXTT5=
EXTT6=
EXTT7=
EXTT8=
EXTT9=
EXTT10=
EXTT11=
EXTT12=
EXTT13=
EXTT14=
EXTT15=
EXTT16=
EXTT17=
EXTT18=
EXTT19=
PLAYORDER=
